# xmcd
#
# Track frame offsets:
#	150
#	18887
#	32428
#	46794
#	60182
#	75523
#	88086
#	101604
#	117589
#	132071
#	149415
#	163489
#
# Disc length: 2345 seconds
#
# Revision: 0
# Processed by: cddbd v1.4PL0 Copyright (c) Steve Scherf et al.
# Submitted via: EasyCDDAExtractor 4.6.0.1
#
DISCID=9209270c
DTITLE=BANDA CUISILLOS - A VECES LLORO
DYEAR=1999
DGENRE=LATIN
TTITLE0=A VECES LLORO
TTITLE1=CAMBIEMOS AL MUNDO
TTITLE2=QUE PASA CON NUESTRO AMOR
TTITLE3=UN MUCHACHO POBRE
TTITLE4=PALOMAS QUE ANDAN VOLANDO
TTITLE5=PARA ENAMODAROS
TTITLE6=LA DANZA DEL MUNDO (LEYENDAS DEL PRINCIPIO)
TTITLE7=TU LADRON
TTITLE8=EL AÑO 2000
TTITLE9=SI TU YA NO ESTAS
TTITLE10=UN AÑO MAS SIN TI
TTITLE11=IMPOSIBLE OLVIDARTE
EXTD=
EXTT0=
EXTT1=
EXTT2=
EXTT3=
EXTT4=
EXTT5=
EXTT6=
EXTT7=
EXTT8=
EXTT9=
EXTT10=
EXTT11=
PLAYORDER=
